HIERARCHY
ROOT Hips
{
  OFFSET 46.725 84.1634 -9.68205
  CHANNELS 6 Xposition Yposition Zposition Zrotation Xrotation Yrotation
  JOINT spine
  {
    OFFSET 0 6.2448 0.359107
    CHANNELS 3 Zrotation Xrotation Yrotation
    JOINT spine1
    {
      OFFSET 0 9.06941 0
      CHANNELS 3 Zrotation Xrotation Yrotation
      JOINT spine2
      {
        OFFSET 0 8.69014 0
        CHANNELS 3 Zrotation Xrotation Yrotation
        JOINT Neck
        {
          OFFSET 0 22.3112 1.06372
          CHANNELS 3 Zrotation Xrotation Yrotation
          JOINT Head
          {
            OFFSET 0 6.74081 0
            CHANNELS 3 Zrotation Xrotation Yrotation
            End Site
            {
              OFFSET 0 16.3165 -5.38097
            }
          }
        }
        JOINT RightShoulder
        {
          OFFSET -3.65916 9.38468 -0.509514
          CHANNELS 3 Zrotation Xrotation Yrotation
          JOINT RightArm
          {
            OFFSET 0 12.3089 0
            CHANNELS 3 Zrotation Xrotation Yrotation
            JOINT RightArmRoll
            {
              OFFSET 0 6.21375 0
              CHANNELS 3 Zrotation Xrotation Yrotation
              JOINT RightForeArm
              {
                OFFSET 0 18.0985 0
                CHANNELS 3 Zrotation Xrotation Yrotation
                JOINT RightForeArmRoll
                {
                  OFFSET 0 6.9728 0
                  CHANNELS 3 Zrotation Xrotation Yrotation
                  JOINT RightHand
                  {
                    OFFSET 0 13.9929 0
                    CHANNELS 3 Zrotation Xrotation Yrotation
                    End Site
                    {
                      OFFSET 0 0 0
                    }
                  }
                }
              }
            }
          }
        }
        JOINT LeftShoulder
        {
          OFFSET 3.65916 9.38468 -0.509514
          CHANNELS 3 Zrotation Xrotation Yrotation
          JOINT LeftArm
          {
            OFFSET 0 12.3089 0
            CHANNELS 3 Zrotation Xrotation Yrotation
            JOINT LeftArmRoll
            {
              OFFSET 0 6.21375 0
              CHANNELS 3 Zrotation Xrotation Yrotation
              JOINT LeftForeArm
              {
                OFFSET 0 18.0985 0
                CHANNELS 3 Zrotation Xrotation Yrotation
                JOINT LeftForeArmRoll
                {
                  OFFSET 0 6.97279 0
                  CHANNELS 3 Zrotation Xrotation Yrotation
                  JOINT LeftHand
                  {
                    OFFSET 0 13.9929 0
                    CHANNELS 3 Zrotation Xrotation Yrotation
                    End Site
                    {
                      OFFSET 0 0 0
                    }
                  }
                }
              }
            }
          }
        }
      }
    }
  }
  JOINT RightUpLeg
  {
    OFFSET -5.53515 -1.015 -0.851454
    CHANNELS 3 Zrotation Xrotation Yrotation
    JOINT RightUpLegRoll
    {
      OFFSET 0 16.4075 0
      CHANNELS 3 Zrotation Xrotation Yrotation
      JOINT RightLeg
      {
        OFFSET 0 -20.3181 0
        CHANNELS 3 Zrotation Xrotation Yrotation
        JOINT RightLegRoll
        {
          OFFSET 0 20.3846 0
          CHANNELS 3 Zrotation Xrotation Yrotation
          JOINT RightFoot
          {
            OFFSET 0 16.9668 0
            CHANNELS 3 Zrotation Xrotation Yrotation
            JOINT RightToeBase
            {
              OFFSET 0 14.1834 0
              CHANNELS 3 Zrotation Xrotation Yrotation
              End Site
              {
                OFFSET 0.0060118 6.8689 -0.791745
              }
            }
          }
        }
      }
    }
  }
  JOINT LeftUpLeg
  {
    OFFSET 5.53515 -1.015 -0.851454
    CHANNELS 3 Zrotation Xrotation Yrotation
    JOINT LeftUpLegRoll
    {
      OFFSET 0 16.4076 0
      CHANNELS 3 Zrotation Xrotation Yrotation
      JOINT LeftLeg
      {
        OFFSET 0 20.3181 0
        CHANNELS 3 Zrotation Xrotation Yrotation
        JOINT LeftLegRoll
        {
          OFFSET 0 20.5731 0
          CHANNELS 3 Zrotation Xrotation Yrotation
          JOINT LeftFoot
          {
            OFFSET 0 16.7783 0
            CHANNELS 3 Zrotation Xrotation Yrotation
            JOINT LeftToeBase
            {
              OFFSET 0 14.1834 0
              CHANNELS 3 Zrotation Xrotation Yrotation
              End Site
              {
                OFFSET -0.0269423 6.8689 -0.791746
              }
            }
          }
        }
      }
    }
  }
}
MOTION
Frames: 10
Frame Time: 0.00208333
43.4789 83.8413 -10.2668 0.28716 1.3547 -0.0695875 -0.151917 -1.48185 0.0580295 -0.318972 1.03891 0.132196 -0.320324 2.68396 0.137674 0.497856 10.1658 -0.0819781 0.563221 0.524942 0.115841 68.2834 -1.55864 -1.86814 108.92 8.31091 7.16237 1.09332e-015 -1.19271e-015 1.59028e-015 11.3171 19.1919 -2.67321 -1.24852e-005 -3.72997e-007 -3 8.02891 -4.9515 0.697715 -63.2583 -6.065 3.95234 -112.41 6.26332 -13.0439 4.25548e-006 1.85815e-006 2.01307e-007 -5.24513 21.7666 1.58908 4.02523e-006 -2.82014e-007 3.01013 -8.02959 -4.95156 -0.697704 179.492 8.86314 -0.517632 180 7.01564e-015 178.998 178.511 15.4878 179.311 -4.11128e-006 -4.01492e-006 0.396489 -21.9604 71.2103 22.687 8.13183 25.234 -3.4857 -177.473 4.23514 -1.46899 4.54188e-006 -4.6773e-006 -0.961936 -0.955106 -13.9778 0.830211 -1.10866e-006 5.05348e-006 -0.363399 23.9495 74.0571 -26.2584 -8.13294 25.2329 3.48622 
43.4784 83.8323 -10.2629 0.291801 1.37976 -0.0646448 -0.152671 -1.48628 0.0562351 -0.319341 1.03005 0.128648 -0.320681 2.6751 0.134125 0.503045 10.1619 -0.0794302 0.555779 0.513327 0.119377 68.2793 -1.55807 -1.86743 108.932 8.31886 7.14289 9.83984e-015 -1.19271e-015 3.18055e-015 11.326 19.2109 -2.67666 -1.24852e-005 -3.72997e-007 -3 8.02891 -4.9515 0.697715 -63.2644 -6.06042 3.94998 -112.42 6.279 -13.0133 4.25548e-006 1.85815e-006 2.01307e-007 -5.26024 21.8064 1.59543 4.02523e-006 -2.82014e-007 3.01013 -8.02959 -4.95156 -0.697704 179.486 8.88433 -0.515961 180 7.01564e-015 178.998 178.51 15.5008 179.311 -4.11128e-006 -4.01492e-006 0.39599 -21.9761 71.2262 22.7035 8.13183 25.234 -3.4857 -177.491 4.26906 -1.44915 4.54188e-006 -4.6773e-006 -0.963264 -0.94349 -14.0091 0.831635 -1.10866e-006 5.05348e-006 -0.365961 24.0091 74.0785 -26.297 -8.13294 25.2329 3.48622 
43.4777 83.8798 -10.2484 0.296598 1.40569 -0.0596063 -0.153456 -1.49094 0.0543655 -0.319737 1.02074 0.124951 -0.321065 2.66579 0.130427 0.508027 10.1587 -0.0768004 0.54837 0.501124 0.122943 68.275 -1.55726 -1.86657 108.945 8.32684 7.12333 -1.19271e-014 -3.97569e-016 -0 11.335 19.2301 -2.68012 -1.24852e-005 -3.72997e-007 -3 8.02891 -4.9515 0.697715 -63.2709 -6.05577 3.94761 -112.428 6.29416 -12.9829 4.25548e-006 1.85815e-006 2.01307e-007 -5.27571 21.847 1.60194 4.02523e-006 -2.82014e-007 3.01013 -8.02959 -4.95156 -0.697704 179.48 8.90665 -0.514014 180 7.01564e-015 178.998 178.509 15.5139 179.311 -4.11128e-006 -4.01492e-006 0.395484 -21.9916 71.2421 22.7197 8.13183 25.234 -3.4857 -177.509 4.30365 -1.42893 4.54188e-006 -4.6773e-006 -0.96455 -0.931856 -14.0395 0.8331 -1.10866e-006 5.05348e-006 -0.368389 24.0672 74.0994 -26.3346 -8.13294 25.2329 3.48622 
43.5047 83.8628 -10.2711 0.301503 1.43223 -0.0545008 -0.154263 -1.49576 0.0524431 -0.320152 1.0111 0.12115 -0.321467 2.65615 0.126626 0.512865 10.156 -0.0741134 0.540984 0.48851 0.126531 68.2705 -1.55628 -1.8656 108.957 8.33484 7.10371 -4.87022e-015 7.95139e-016 3.18055e-015 11.3441 19.2493 -2.68359 -1.24852e-005 -3.72997e-007 -3 8.02891 -4.9515 0.697715 -63.2778 -6.05108 3.94524 -112.436 6.30895 -12.9526 4.25548e-006 1.85815e-006 2.01307e-007 -5.29141 21.8882 1.60857 4.02523e-006 -2.82014e-007 3.01013 -8.02959 -4.95156 -0.697704 179.473 8.92974 -0.511874 180 7.01564e-015 178.998 178.507 15.527 179.31 -4.11128e-006 -4.01492e-006 0.394972 -22.0071 71.2578 22.7357 8.13183 25.234 -3.4857 -177.527 4.33872 -1.40845 4.54188e-006 -4.6773e-006 -0.965807 -0.920208 -14.0694 0.834595 -1.10866e-006 5.05348e-006 -0.370724 24.1243 74.1199 -26.3717 -8.13294 25.2329 3.48622 
43.5006 83.8362 -10.2586 0.306466 1.45911 -0.0493569 -0.155082 -1.50067 0.0504906 -0.320578 1.00129 0.117289 -0.321881 2.64634 0.122765 0.517621 10.1537 -0.0713937 0.533613 0.475661 0.13013 68.266 -1.55521 -1.86458 108.97 8.34287 7.08405 -3.77691e-015 -3.97569e-016 1.59028e-015 11.3531 19.2686 -2.68707 -1.24852e-005 -3.72997e-007 -3 8.02891 -4.9515 0.697715 -63.285 -6.04636 3.94285 -112.444 6.32354 -12.9225 4.25548e-006 1.85815e-006 2.01307e-007 -5.30726 21.9297 1.61527 4.02523e-006 -2.82014e-007 3.01013 -8.02959 -4.95156 -0.697704 179.466 8.95329 -0.509622 180 7.01564e-015 178.998 178.505 15.5401 179.31 -4.11128e-006 -4.01492e-006 0.394457 -22.0226 71.2734 22.7517 8.13183 25.234 -3.4857 -177.546 4.37405 -1.38782 4.54188e-006 -4.6773e-006 -0.967048 -0.908553 -14.0989 0.836107 -1.10866e-006 5.05348e-006 -0.373006 24.1808 74.1401 -26.4083 -8.13294 25.2329 3.48622 
43.4708 83.8449 -10.2078 0.311441 1.48609 -0.0442034 -0.155905 -1.50561 0.0485305 -0.321009 0.991423 0.113414 -0.322299 2.63648 0.118889 0.522356 10.1515 -0.0686659 0.526246 0.462753 0.133733 68.2614 -1.55411 -1.86354 108.983 8.3509 7.06438 7.95139e-016 -1.19271e-015 3.18055e-015 11.3622 19.2879 -2.69055 -1.24852e-005 -3.72997e-007 -3 8.02891 -4.9515 0.697715 -63.2921 -6.04163 3.94047 -112.451 6.33808 -12.8924 4.25548e-006 1.85815e-006 2.01307e-007 -5.32315 21.9714 1.62199 4.02523e-006 -2.82014e-007 3.01013 -8.02959 -4.95156 -0.697704 179.46 8.97694 -0.507343 180 7.01564e-015 178.998 178.503 15.5533 179.31 -4.11128e-006 -4.01492e-006 0.393942 -22.0381 71.289 22.7677 8.13183 25.234 -3.4857 -177.564 4.40945 -1.36714 4.54188e-006 -4.6773e-006 -0.968284 -0.896893 -14.1283 0.837624 -1.10866e-006 5.05348e-006 -0.375274 24.2373 74.1603 -26.445 -8.13294 25.2329 3.48622 
43.4827 83.8349 -10.2111 0.31638 1.51289 -0.0390689 -0.156722 -1.5105 0.0465855 -0.321436 0.981651 0.109568 -0.322713 2.62671 0.115043 0.527133 10.1491 -0.0659545 0.518874 0.449962 0.13733 68.2568 -1.55306 -1.86253 108.996 8.35891 7.04473 2.8625e-014 -4.77083e-015 6.36111e-015 11.3713 19.3071 -2.69403 -1.24852e-005 -3.72997e-007 -3 8.02891 -4.9515 0.697715 -63.2992 -6.03692 3.93809 -112.459 6.35272 -12.8623 4.25548e-006 1.85815e-006 2.01307e-007 -5.33899 22.0128 1.62868 4.02523e-006 -2.82014e-007 3.01013 -8.02959 -4.95156 -0.697704 179.453 9.00037 -0.505119 180 7.01564e-015 178.998 178.502 15.5664 179.31 -4.11128e-006 -4.01492e-006 0.393427 -22.0536 71.3047 22.7837 8.13183 25.234 -3.4857 -177.582 4.44471 -1.34655 4.54188e-006 -4.6773e-006 -0.969529 -0.885236 -14.1578 0.839134 -1.10866e-006 5.05348e-006 -0.377569 24.2942 74.1805 -26.482 -8.13294 25.2329 3.48622 
43.5242 83.8347 -10.2395 0.321233 1.53925 -0.0339821 -0.157524 -1.51527 0.0446782 -0.321851 0.972108 0.105797 -0.323115 2.61716 0.111271 0.532014 10.1463 -0.063284 0.511489 0.437465 0.140911 68.2524 -1.55213 -1.86159 109.008 8.36691 7.02512 -9.0447e-015 0 4.77083e-015 11.3803 19.3263 -2.6975 -1.24852e-005 -3.72997e-007 -3 8.02891 -4.9515 0.697715 -63.306 -6.03224 3.93571 -112.467 6.36763 -12.832 4.25548e-006 1.85815e-006 2.01307e-007 -5.35467 22.0539 1.63529 4.02523e-006 -2.82014e-007 3.01013 -8.02959 -4.95156 -0.697704 179.447 9.02324 -0.503033 180 7.01564e-015 178.998 178.5 15.5795 179.309 -4.11128e-006 -4.01492e-006 0.392917 -22.0692 71.3204 22.8 8.13183 25.234 -3.4857 -177.601 4.47964 -1.32613 4.54188e-006 -4.6773e-006 -0.970795 -0.873585 -14.1878 0.840623 -1.10866e-006 5.05348e-006 -0.37993 24.352 74.2011 -26.5196 -8.13294 25.2329 3.48622 
43.5172 83.8321 -10.2207 0.325954 1.56492 -0.0289716 -0.158302 -1.51986 0.0428311 -0.322246 0.962929 0.102145 -0.323499 2.60798 0.107618 0.53706 10.1429 -0.0606791 0.504079 0.425439 0.144468 68.2481 -1.55139 -1.86077 109.021 8.37488 7.00558 6.85807e-015 -2.38542e-015 3.18055e-015 11.3893 19.3455 -2.70097 -1.24852e-005 -3.72997e-007 -3 8.02891 -4.9515 0.697715 -63.3124 -6.02761 3.93335 -112.475 6.38296 -12.8015 4.25548e-006 1.85815e-006 2.01307e-007 -5.37009 22.0942 1.64178 4.02523e-006 -2.82014e-007 3.01013 -8.02959 -4.95156 -0.697704 179.44 9.04522 -0.501168 180 7.01564e-015 178.998 178.499 15.5926 179.309 -4.11128e-006 -4.01492e-006 0.392413 -22.085 71.3362 22.8164 8.13183 25.234 -3.4857 -177.619 4.51404 -1.30602 4.54188e-006 -4.6773e-006 -0.972094 -0.861947 -14.2185 0.84208 -1.10866e-006 5.05348e-006 -0.382399 24.4112 74.2221 -26.5582 -8.13294 25.2329 3.48622 
43.4726 83.8321 -10.17 0.330495 1.58963 -0.0240662 -0.159045 -1.5242 0.0410668 -0.322614 0.954252 0.0986565 -0.323855 2.59931 0.104129 0.542333 10.1386 -0.0581643 0.496637 0.414059 0.147991 68.2441 -1.55091 -1.86011 109.034 8.3828 6.98613 3.18055e-015 -7.95139e-016 3.18055e-015 11.3982 19.3645 -2.70442 -1.24852e-005 -3.72997e-007 -3 8.02891 -4.9515 0.697715 -63.3183 -6.02306 3.931 -112.485 6.39886 -12.7707 4.25548e-006 1.85815e-006 2.01307e-007 -5.38515 22.1336 1.6481 4.02523e-006 -2.82014e-007 3.01013 -8.02959 -4.95156 -0.697704 179.435 9.06597 -0.499606 180 7.01564e-015 178.998 178.498 15.6056 179.308 -4.11128e-006 -4.01492e-006 0.391917 -22.1009 71.3522 22.8333 8.13183 25.234 -3.4857 -177.637 4.54769 -1.28633 4.54188e-006 -4.6773e-006 -0.973439 -0.850325 -14.2501 0.843492 -1.10866e-006 5.05348e-006 -0.385015 24.4723 74.2436 -26.598 -8.13294 25.2329 3.48622 
